<svg width="22" height="22" viewBox="0 0 22 22" fill="none" xmlns="http://www.w3.org/2000/svg">
<g clip-path="url(#clip0_1_109)">
<path d="M21.3125 13.7498C20.933 13.7498 20.625 14.0578 20.625 14.4373V19.2498H1.375V10.9998H8.9375C9.317 10.9998 9.625 10.6918 9.625 10.3123C9.625 9.93279 9.317 9.62479 8.9375 9.62479H1.375V6.87479H8.9375C9.317 6.87479 9.625 6.56679 9.625 6.18729C9.625 5.80779 9.317 5.49979 8.9375 5.49979H1.375C0.616 5.49979 0 6.11579 0 6.87479V19.2498C0 20.0088 0.616 20.6248 1.375 20.6248H20.625C21.384 20.6248 22 20.0088 22 19.2498V14.4373C22 14.0578 21.692 13.7498 21.3125 13.7498Z" fill="white"/>
<path d="M6.18781 13.7495H3.43781C3.05831 13.7495 2.75031 14.0575 2.75031 14.437C2.75031 14.8165 3.05831 15.1245 3.43781 15.1245H6.18781C6.56731 15.1245 6.87531 14.8165 6.87531 14.437C6.87531 14.0575 6.56731 13.7495 6.18781 13.7495Z" fill="white"/>
<path d="M21.5837 3.49267L16.7712 1.43018C16.5966 1.3573 16.4027 1.3573 16.2281 1.43018L11.4156 3.49267C11.1639 3.6013 11.0003 3.85017 11.0003 4.12517V6.87517C11.0003 10.6578 12.3987 12.8688 16.1579 15.0344C16.2638 15.0949 16.3821 15.1252 16.5003 15.1252C16.6186 15.1252 16.7368 15.0949 16.8427 15.0344C20.6019 12.8743 22.0003 10.6633 22.0003 6.87517V4.12517C22.0003 3.85017 21.8367 3.6013 21.5837 3.49267ZM20.6253 6.87517C20.6253 10.05 19.5748 11.7977 16.5003 13.6402C13.4258 11.7935 12.3753 10.0459 12.3753 6.87517V4.57892L16.5003 2.81067L20.6253 4.57892V6.87517Z" fill="white"/>
<path d="M18.9929 5.64965C18.6973 5.4159 18.2655 5.46127 18.0263 5.7569L15.8648 8.46014L15.0095 7.1814C14.7964 6.86515 14.3688 6.78127 14.0566 6.99027C13.7418 7.20065 13.6551 7.62827 13.8655 7.94315L15.2405 10.0056C15.3629 10.1885 15.5636 10.3013 15.7836 10.3123C15.7933 10.3123 15.8043 10.3123 15.8125 10.3123C16.0201 10.3123 16.2181 10.2188 16.3501 10.0538L19.1001 6.61627C19.3366 6.31927 19.2899 5.88752 18.9929 5.64965Z" fill="white"/>
</g>
<defs>
<clipPath id="clip0_1_109">
<rect width="22" height="22" fill="white"/>
</clipPath>
</defs>
</svg>
