<svg width="22" height="22" viewBox="0 0 22 22" fill="none" xmlns="http://www.w3.org/2000/svg">
<path d="M0.66687 17.6059C0.783523 17.7723 0.919983 17.9666 1.07826 18.2241C1.14255 18.3275 1.21103 18.4323 1.28035 18.5383C1.58046 18.9049 1.77214 19.3482 1.83357 19.818V20.8999C1.83357 21.5075 2.3262 22 2.93364 22H7.33357C7.94118 22 8.43364 21.5075 8.43364 20.8999V19.4333C8.43666 19.298 8.51169 19.1745 8.63052 19.1095C9.34337 18.7429 9.96977 18.2283 10.4676 17.6001H10.6336C10.7655 17.6001 10.8968 17.5824 11.0238 17.5472L12.1634 19.2705C12.7226 20.0427 13.6725 20.4293 14.6119 20.2672C14.7918 20.2366 14.974 20.3069 15.0864 20.4504L15.785 21.4822C16.1506 22.019 16.8819 22.1583 17.4191 21.7935L21.48 18.9791C21.738 18.8055 21.9161 18.5361 21.9747 18.2307C22.0346 17.9321 21.9737 17.6217 21.8053 17.3679C21.6417 16.9941 21.5908 16.5807 21.6586 16.1784C21.6642 16.0831 21.6692 15.9886 21.6725 15.8958C21.6831 15.5789 21.6645 15.2668 21.6465 14.9644C21.6398 14.8507 21.6333 14.7368 21.6277 14.6235C21.5643 13.1194 21.0856 11.6622 20.245 10.4134L18.0967 7.24174C17.6635 6.57254 16.7825 6.35904 16.0911 6.75583C15.8176 6.92116 15.6062 7.17209 15.4897 7.46968C15.1267 7.19458 14.6559 7.10478 14.217 7.22714C13.778 7.3495 13.4215 7.66975 13.2532 8.09306C12.9232 7.84633 12.5051 7.74948 12.1003 7.82619V1.46664C12.1003 0.656616 11.4436 0 10.6336 0H4.03371C3.22368 0 2.56706 0.656616 2.56706 1.46664V6.28905C2.46014 6.25816 2.3502 6.23953 2.23926 6.23332H2.1743C1.62108 6.23584 1.15715 6.65176 1.09438 7.20129C1.03462 7.70735 0.936599 8.20821 0.801147 8.69949C0.719574 8.96687 0.619873 9.22838 0.502716 9.48199C0.26001 9.95918 0.115158 10.48 0.0765531 11.0139C0.0663144 11.3293 0.0790708 11.6643 0.0913236 11.9874C0.102569 12.2881 0.114654 12.5987 0.107437 12.8851C0.102234 13.0783 0.0857847 13.3764 0.067825 13.7126C0.0278776 14.4459 -0.0216372 15.3581 0.0109251 15.7939C0.0181424 16.4547 0.249435 17.0935 0.66687 17.6059ZM12.9892 8.85358L13.4002 9.46001C13.4257 9.49593 13.4575 9.52698 13.494 9.55165C13.5009 9.55635 13.5076 9.56155 13.5149 9.56592C13.5501 9.58774 13.5889 9.60335 13.6293 9.61224H13.6466C13.6656 9.6161 13.6851 9.61845 13.7045 9.61913C13.7205 9.61795 13.7364 9.6156 13.7522 9.61224C13.7643 9.61224 13.7757 9.60956 13.7888 9.60704C13.8324 9.59781 13.8737 9.58052 13.911 9.55602C14.0785 9.44255 14.1225 9.21478 14.0092 9.0471C13.7819 8.71175 13.8697 8.25571 14.205 8.02861C14.5404 7.80135 14.9964 7.88896 15.2235 8.22432L15.6331 8.83662C15.7481 9.00061 15.9731 9.04224 16.139 8.92995C16.3048 8.81766 16.35 8.59325 16.2404 8.42557C16.1274 8.2589 16.088 8.05295 16.1314 7.8564C16.1749 7.65968 16.2973 7.48949 16.4698 7.38576C16.8278 7.19592 17.2718 7.31291 17.4896 7.65448L19.6379 10.827C20.4021 11.9638 20.8368 13.2898 20.8941 14.6582C20.8996 14.7755 20.9065 14.8925 20.9135 15.0099C20.9312 15.3083 20.948 15.5903 20.9384 15.8726C20.9355 15.9607 20.9303 16.0502 20.9253 16.14C20.842 16.6949 20.9333 17.262 21.1866 17.7629C21.2529 17.8602 21.2774 17.9801 21.2546 18.0957C21.2318 18.2112 21.1636 18.3127 21.0653 18.3777L17.0049 21.1908C16.803 21.3269 16.5292 21.2742 16.3921 21.073L15.6871 20.0317C15.4196 19.6626 14.9682 19.4741 14.5177 19.5434C13.8542 19.673 13.1751 19.4095 12.7728 18.8661L11.4836 16.9151V16.9111C11.4836 16.9089 11.4799 16.9077 11.4789 16.9055L10.5008 15.4256C10.2321 15.0285 10.2024 14.3495 10.5863 14.0892L10.9936 13.7772L13.457 17.394C13.5291 17.5062 13.6564 17.5704 13.7895 17.5616C13.9226 17.5529 14.0406 17.4727 14.0973 17.352C14.154 17.2311 14.1409 17.0891 14.0627 16.981L11.4191 13.1018C11.4094 13.0721 11.3956 13.0437 11.3783 13.0177C11.3659 13.0046 11.3525 12.9923 11.3384 12.9811L7.09305 6.75113C6.94652 6.53394 6.92705 6.25497 7.04185 6.01949C7.15683 5.784 7.38846 5.62773 7.6498 5.60944C7.91113 5.59114 8.1624 5.71367 8.30893 5.93086L11.3746 10.3932C11.4483 10.5027 11.5751 10.5641 11.7065 10.5542C11.8381 10.5441 11.9541 10.4644 12.0105 10.3452C12.0668 10.2259 12.0548 10.0856 11.9789 9.97781L11.7795 9.68727C11.7773 9.68408 11.7773 9.67955 11.7748 9.67636C11.5475 9.341 11.6351 8.88496 11.9705 8.6577C12.3059 8.4306 12.7619 8.51822 12.9892 8.85358ZM9.16696 5.88202L8.9162 5.51762C8.62482 5.0777 8.11943 4.82845 7.59306 4.86453C7.0667 4.90062 6.60025 5.21667 6.37164 5.69235C6.14304 6.16786 6.18751 6.72948 6.48813 7.16319L6.79143 7.60832C5.89496 7.32785 5.35667 6.41393 5.546 5.49379C5.73534 4.57382 6.59068 3.94658 7.52508 4.04292C8.45949 4.1391 9.16914 4.92731 9.16696 5.86674V5.88202ZM9.16696 0.733322V1.10007C9.16696 1.30249 9.00281 1.46664 8.80038 1.46664H5.86693C5.6645 1.46664 5.50035 1.30249 5.50035 1.10007V0.733322H9.16696ZM3.30038 1.46664C3.30038 1.06163 3.62869 0.733322 4.03371 0.733322H4.76703V1.10007C4.76703 1.7075 5.25949 2.19997 5.86693 2.19997H8.80038C9.40782 2.19997 9.90028 1.7075 9.90028 1.10007V0.733322H10.6336C11.0386 0.733322 11.3669 1.06163 11.3669 1.46664V8.21039C11.2392 8.33359 11.1353 8.47945 11.0604 8.64058L9.74889 6.73132C9.84909 6.45404 9.90045 6.16148 9.90028 5.86674C9.90028 4.44911 8.75121 3.30003 7.33357 3.30003C5.91611 3.30003 4.76703 4.44911 4.76703 5.86674C4.76703 7.28421 5.91611 8.43329 7.33357 8.43329H7.3517L10.5782 13.1699L10.1569 13.4934C9.40967 13.9993 9.41823 15.1337 9.89072 15.8323L10.5739 16.8667H4.03371C3.62869 16.8667 3.30038 16.5383 3.30038 16.1333V11.7825C3.73225 10.8441 3.98033 9.83179 4.03152 8.80003H4.03371C4.03371 7.68134 3.68794 7.05057 3.30038 6.69456V1.46664ZM0.799972 13.7525C0.818268 13.4079 0.834884 13.1021 0.840423 12.9037C0.847976 12.5942 0.835891 12.2719 0.824142 11.9599C0.811722 11.6346 0.799972 11.3278 0.809875 11.0381C0.846298 10.5972 0.969833 10.168 1.1736 9.77539C1.30469 9.49139 1.4158 9.19884 1.50661 8.89973C1.6523 8.37135 1.75754 7.83257 1.82149 7.28824C1.84029 7.10696 1.99202 6.96866 2.1743 6.96664H2.23405C2.38814 6.97806 2.53651 7.02959 2.66458 7.11586C2.69362 7.14725 2.72803 7.17326 2.76613 7.19257C3.03368 7.42017 3.30038 7.87604 3.30038 8.80003C3.29803 8.81766 3.29955 8.83545 3.30475 8.8524C3.36786 9.93266 2.5867 11.6801 2.40308 11.7718C2.25017 11.8466 2.16943 12.0173 2.20871 12.183C2.24799 12.3485 2.39687 12.4648 2.56706 12.463V16.1333C2.56706 16.9433 3.22368 17.6001 4.03371 17.6001H9.48386C9.11459 17.9376 8.70673 18.2303 8.26865 18.4719C7.92036 18.6671 7.70351 19.0341 7.70032 19.4333V20.8999C7.70032 21.1025 7.53616 21.2667 7.33357 21.2667H2.93364C2.73122 21.2667 2.56706 21.1025 2.56706 20.8999V19.818C2.51402 19.2027 2.27971 18.6171 1.89349 18.1353C1.82787 18.0356 1.76324 17.9373 1.70316 17.8394C1.53514 17.567 1.39079 17.3627 1.26793 17.185C0.9272 16.7805 0.74089 16.2684 0.742065 15.7395C0.713531 15.3504 0.761535 14.4642 0.799972 13.7525Z" fill="white"/>
</svg>
